<svg xmlns="http://www.w3.org/2000/svg" width="400" height="300" viewBox="0 0 400 300">
  <!-- Background gradient -->
  <defs>
    <linearGradient id="bgGradient" x1="0%" y1="0%" x2="100%" y2="100%">
      <stop offset="0%" style="stop-color:#6366f1;stop-opacity:0.1" />
      <stop offset="100%" style="stop-color:#10b981;stop-opacity:0.1" />
    </linearGradient>
    <linearGradient id="docGradient" x1="0%" y1="0%" x2="0%" y2="100%">
      <stop offset="0%" style="stop-color:#6366f1;stop-opacity:1" />
      <stop offset="100%" style="stop-color:#818cf8;stop-opacity:1" />
    </linearGradient>
  </defs>
  
  <!-- Background -->
  <rect width="400" height="300" fill="url(#bgGradient)" rx="12"/>
  
  <!-- Main PDF Document -->
  <g transform="translate(120, 40)">
    <rect width="160" height="220" fill="url(#docGradient)" rx="8" filter="drop-shadow(0 8px 16px rgba(99, 102, 241, 0.3))"/>
    <rect x="20" y="30" width="120" height="8" fill="white" opacity="0.8" rx="4"/>
    <rect x="20" y="50" width="120" height="8" fill="white" opacity="0.6" rx="4"/>
    <rect x="20" y="70" width="80" height="8" fill="white" opacity="0.6" rx="4"/>
    <rect x="20" y="100" width="120" height="8" fill="white" opacity="0.5" rx="4"/>
    <rect x="20" y="120" width="100" height="8" fill="white" opacity="0.5" rx="4"/>
    <rect x="20" y="150" width="120" height="8" fill="white" opacity="0.4" rx="4"/>
    <rect x="20" y="170" width="90" height="8" fill="white" opacity="0.4" rx="4"/>
  </g>
  
  <!-- Floating document 1 (left) -->
  <g transform="translate(40, 80)" opacity="0.7">
    <rect width="80" height="110" fill="#10b981" rx="6" filter="drop-shadow(0 4px 8px rgba(16, 185, 129, 0.2))"/>
    <rect x="10" y="15" width="60" height="5" fill="white" opacity="0.8" rx="2"/>
    <rect x="10" y="28" width="60" height="5" fill="white" opacity="0.6" rx="2"/>
    <rect x="10" y="41" width="40" height="5" fill="white" opacity="0.6" rx="2"/>
  </g>
  
  <!-- Floating document 2 (right) -->
  <g transform="translate(280, 120)" opacity="0.7">
    <rect width="80" height="110" fill="#ec4899" rx="6" filter="drop-shadow(0 4px 8px rgba(236, 72, 153, 0.2))"/>
    <rect x="10" y="15" width="60" height="5" fill="white" opacity="0.8" rx="2"/>
    <rect x="10" y="28" width="60" height="5" fill="white" opacity="0.6" rx="2"/>
    <rect x="10" y="41" width="40" height="5" fill="white" opacity="0.6" rx="2"/>
  </g>
  
  <!-- Tool icons -->
  <!-- Merge icon -->
  <g transform="translate(60, 220)">
    <circle r="16" fill="#6366f1" opacity="0.2"/>
    <text x="0" y="6" text-anchor="middle" font-size="16" fill="#6366f1">📁</text>
  </g>
  
  <!-- Split icon -->
  <g transform="translate(120, 240)">
    <circle r="16" fill="#10b981" opacity="0.2"/>
    <text x="0" y="6" text-anchor="middle" font-size="16" fill="#10b981">✂️</text>
  </g>
  
  <!-- Compress icon -->
  <g transform="translate(280, 240)">
    <circle r="16" fill="#f59e0b" opacity="0.2"/>
    <text x="0" y="6" text-anchor="middle" font-size="16" fill="#f59e0b">📦</text>
  </g>
  
  <!-- Lock icon -->
  <g transform="translate(340, 220)">
    <circle r="16" fill="#ec4899" opacity="0.2"/>
    <text x="0" y="6" text-anchor="middle" font-size="16" fill="#ec4899">🔒</text>
  </g>
</svg>
